<?xml version="1.0" standalone="no"?>
<!DOCTYPE svg PUBLIC "-//W3C//DTD SVG 20010904//EN"
 "http://www.w3.org/TR/2001/REC-SVG-20010904/DTD/svg10.dtd">
<svg version="1.0" xmlns="http://www.w3.org/2000/svg"
 width="188.000000pt" height="188.000000pt" viewBox="0 0 188.000000 188.000000"
 preserveAspectRatio="xMidYMid meet">
<metadata>
Created by potrace 1.14, written by Peter Selinger 2001-2017
</metadata>
<g transform="translate(0.000000,188.000000) scale(0.100000,-0.100000)"
fill="#000000" stroke="none">
<path d="M460 1722 c-32 -16 -36 -22 -51 -92 -8 -41 -13 -83 -11 -93 4 -17 5
-17 18 0 7 10 20 39 29 65 24 70 38 76 60 25 10 -23 24 -46 32 -50 7 -4 13
-16 13 -26 0 -33 33 -125 52 -147 23 -26 25 -69 2 -60 -12 4 -15 2 -10 -9 3
-10 -9 -28 -34 -51 -23 -21 -37 -41 -33 -48 4 -6 -2 -4 -12 4 -17 14 -18 14
-5 -10 12 -23 12 -24 -4 -11 -20 17 -33 7 -17 -13 10 -11 8 -15 -6 -19 -14 -4
-13 -5 5 -6 31 -1 28 -21 -4 -21 -35 0 -124 -41 -124 -57 0 -7 -6 -13 -14 -13
-7 0 -19 -6 -25 -14 -10 -11 -7 -18 11 -31 22 -15 22 -17 5 -26 -15 -9 -16
-13 -6 -26 10 -12 10 -16 -2 -24 -11 -7 -11 -9 0 -9 7 0 11 -6 7 -15 -3 -8 -1
-15 5 -15 7 0 8 -7 4 -17 -5 -10 -9 -43 -10 -75 -1 -33 -8 -67 -18 -82 -9 -14
-17 -29 -17 -33 0 -5 -9 -14 -21 -21 -11 -7 -18 -19 -15 -27 3 -8 1 -17 -4
-20 -5 -3 -9 -25 -10 -48 -2 -109 1 -172 8 -177 7 -4 10 -20 14 -67 1 -7 7
-13 14 -13 9 0 11 -10 7 -32 -3 -18 -6 -58 -6 -88 -1 -39 -6 -57 -17 -62 -9
-4 -1 -7 20 -7 26 -1 31 -4 20 -11 -11 -7 -11 -10 -2 -10 23 0 2 -20 -21 -20
-19 -1 -20 -2 -7 -13 8 -7 16 -19 18 -27 2 -8 10 -19 18 -23 16 -9 19 -37 3
-37 -5 0 -7 -4 -4 -10 4 -6 65 -10 151 -10 119 0 144 3 144 14 0 8 -5 18 -10
21 -6 4 -8 11 -5 16 4 5 -1 9 -10 9 -9 0 -13 5 -10 10 3 6 1 10 -6 10 -10 0
-10 3 -1 12 14 14 -2 48 -23 48 -8 0 -15 4 -15 10 0 5 -11 12 -25 16 -14 3
-25 10 -25 16 0 5 -4 6 -10 3 -6 -4 -10 7 -10 25 0 34 -18 59 -38 52 -8 -2
-10 2 -5 14 5 14 2 16 -21 12 -20 -4 -26 -2 -22 8 3 8 -1 14 -11 14 -13 0 -13
3 -3 15 11 14 7 19 -13 16 -4 -1 -5 10 -3 24 4 21 2 24 -13 15 -16 -8 -18 -5
-15 28 1 20 -3 43 -10 51 -8 11 -8 13 1 7 9 -5 11 -2 7 8 -3 9 -11 16 -16 16
-6 0 -6 5 1 14 13 16 11 37 -4 48 -6 5 -5 8 3 8 7 0 10 5 7 10 -3 6 0 10 7 10
9 0 10 2 2 8 -16 10 -10 50 16 108 12 27 23 57 25 67 3 11 16 30 31 44 20 18
25 31 22 53 -5 32 -3 33 65 45 21 3 35 10 32 14 -3 5 2 12 11 15 8 3 12 11 9
17 -4 6 2 20 13 32 11 12 18 32 17 45 -2 25 5 28 23 10 9 -9 12 -9 12 0 0 7 3
11 8 11 22 -4 30 3 25 24 -6 22 -6 22 13 2 10 -11 26 -20 34 -20 8 0 25 -20
37 -45 18 -38 20 -53 13 -96 -9 -56 -32 -91 -68 -105 -19 -7 -31 -3 -63 23
-30 24 -50 32 -88 34 -55 3 -76 -17 -40 -37 11 -5 18 -16 16 -22 -2 -7 6 -17
17 -22 12 -6 21 -17 21 -25 0 -9 10 -16 23 -16 38 -2 41 -4 44 -24 3 -18 6
-18 36 11 18 17 36 29 41 27 5 -2 1 -27 -9 -56 -17 -51 -17 -52 1 -36 10 9 21
25 24 35 4 11 10 17 15 14 13 -8 41 137 45 233 4 92 33 242 47 242 4 0 8 11 8
25 0 33 20 75 37 75 9 0 13 -13 11 -45 0 -25 -4 -45 -7 -45 -8 0 -31 -119 -31
-162 -1 -18 -7 -51 -16 -73 -8 -22 -17 -65 -20 -96 -5 -44 -3 -58 11 -72 14
-15 15 -20 3 -34 -11 -14 -11 -16 1 -9 7 5 29 12 48 16 27 7 33 5 29 -5 -5
-15 54 -41 63 -28 3 5 20 9 36 10 74 4 88 8 98 30 10 23 81 58 98 48 5 -4 9
-2 9 3 0 17 -60 33 -80 22 -35 -19 -106 -8 -93 14 7 10 -17 -3 -72 -41 -11 -7
-27 -13 -36 -13 -21 0 -71 39 -64 50 3 5 -1 11 -7 13 -10 4 -9 6 1 6 11 1 11
4 0 18 -9 10 -10 18 -4 20 6 2 9 18 7 36 -2 21 3 40 15 54 10 12 26 31 37 44
15 17 20 19 27 8 7 -11 9 -9 9 6 0 15 2 17 9 6 7 -11 9 -11 14 0 3 8 6 3 6
-11 1 -20 3 -22 11 -10 8 12 10 12 10 1 0 -11 3 -11 15 -1 12 10 15 10 15 -2
0 -8 -6 -20 -12 -27 -11 -11 -9 -11 12 -1 17 9 25 10 28 2 2 -6 9 -9 17 -6 10
4 12 -4 10 -32 -5 -48 10 -78 36 -71 10 3 17 1 14 -3 -3 -5 11 -12 32 -15 68
-12 74 -15 64 -33 -13 -24 36 -61 129 -98 25 -10 51 -24 58 -31 7 -7 21 -13
30 -13 15 -1 15 -2 -1 -14 -17 -13 -16 -14 3 -19 13 -3 18 -11 14 -20 -3 -9 2
-27 11 -41 10 -14 13 -26 9 -26 -5 0 -3 -4 4 -9 11 -7 9 -13 -10 -31 l-23 -22
25 7 c20 6 23 5 15 -6 -6 -8 -10 -23 -10 -34 0 -11 -12 -32 -28 -47 -22 -22
-24 -28 -11 -28 15 0 16 -2 2 -17 -9 -10 -13 -24 -11 -31 3 -7 1 -12 -4 -11
-20 5 -41 -14 -38 -33 3 -13 -9 -33 -37 -60 -30 -29 -37 -42 -28 -48 9 -6 7
-10 -8 -14 -12 -4 -24 -16 -27 -27 -4 -11 -9 -18 -12 -15 -3 3 -14 1 -24 -5
-22 -11 -26 -59 -5 -59 8 0 16 -7 19 -14 4 -11 1 -13 -10 -9 -13 5 -14 3 -3
-18 9 -16 10 -24 2 -27 -8 -2 -8 -9 1 -23 10 -17 24 -19 121 -19 l108 0 -4 25
c-4 20 -1 26 19 31 14 4 21 9 16 13 -4 3 -9 15 -11 26 -10 69 -9 77 9 88 25
15 24 27 -1 27 -12 0 -17 5 -14 14 3 8 0 17 -6 21 -9 6 -9 9 1 15 10 7 10 12
0 23 -9 11 -9 17 0 22 8 6 7 10 -2 16 -8 5 -9 9 -4 9 6 0 11 8 12 18 3 30 11
71 18 82 3 5 1 19 -5 30 -9 17 -8 20 9 20 18 0 19 2 6 27 -11 21 -12 29 -2 35
7 4 8 8 4 8 -4 0 -3 9 3 20 13 25 -4 90 -23 90 -7 0 -4 7 6 14 10 8 13 16 8
17 -6 2 -12 13 -14 24 -1 11 -6 26 -10 33 -5 6 -5 17 -2 22 4 6 -6 10 -22 10
-22 0 -25 2 -13 10 8 5 11 10 6 10 -5 0 -4 6 3 13 7 9 7 17 1 23 -6 6 -12 19
-14 30 -2 10 -9 39 -16 63 -6 24 -9 59 -5 78 6 33 -10 63 -34 63 -6 0 -8 7 -4
16 5 14 2 16 -22 10 -22 -6 -26 -4 -22 8 4 10 1 13 -9 9 -7 -3 -14 -1 -14 3 0
5 -10 20 -21 34 -11 14 -18 19 -14 12 6 -11 3 -11 -13 -1 -12 7 -19 16 -16 20
2 4 -11 12 -30 19 -32 10 -34 13 -29 50 5 35 3 40 -26 54 -40 21 -39 44 5 89
32 31 36 43 41 99 3 35 10 68 15 75 5 7 7 16 4 22 -7 11 10 53 35 92 19 26 14
44 -11 44 -23 0 -47 -45 -73 -137 -37 -126 -95 -232 -122 -221 -9 3 -15 -1
-15 -9 0 -18 -86 -16 -121 3 -13 7 -26 11 -29 10 -3 -2 -13 -7 -22 -12 -11 -6
-19 -5 -24 2 -4 8 -9 7 -15 -2 -5 -8 -9 -9 -9 -4 0 6 -11 12 -25 13 -14 1 -36
12 -49 24 -22 22 -96 139 -96 152 0 21 -84 178 -100 186 -25 13 -29 13 -70 -8z
m84 -899 c4 -5 13 -8 19 -8 5 0 12 -6 15 -12 5 -18 -42 -17 -57 0 -16 20 5 37
23 20z m484 -15 c-5 -15 -68 -24 -68 -9 0 12 18 19 48 20 15 1 22 -4 20 -11z"/>
<path d="M698 540 c-9 -6 -31 -12 -49 -14 -41 -5 -99 -64 -99 -101 0 -39 26
-92 54 -110 14 -9 52 -19 85 -22 55 -5 61 -4 85 22 31 34 61 123 53 157 -12
45 -46 78 -80 78 -18 0 -40 -5 -49 -10z"/>
<path d="M1155 404 c-22 -20 -33 -33 -25 -29 8 3 6 -1 -4 -9 -23 -18 -10 -21
29 -6 24 9 26 12 14 27 -11 13 -11 15 -1 9 7 -4 17 -18 22 -30 8 -19 9 -19 7
6 -1 15 -4 26 -8 25 -4 -1 -6 3 -5 8 0 6 4 9 7 8 3 -1 6 5 6 13 0 8 -1 14 -1
14 -1 -1 -19 -17 -41 -36z"/>
<path d="M873 323 c-15 -3 -23 -12 -23 -24 0 -24 -16 -25 -30 -1 -9 16 -11 15
-29 -5 -11 -13 -26 -23 -35 -23 -8 0 -18 -5 -21 -11 -6 -9 -50 -31 -67 -33
-11 -1 -12 -8 -4 -32 12 -38 96 -36 96 1 0 8 6 15 13 15 8 0 19 12 26 26 12
28 34 28 39 0 2 -11 -12 -34 -34 -57 -36 -37 -41 -39 -99 -39 -60 0 -63 1 -89
38 l-28 37 6 -49 c6 -47 25 -75 54 -76 6 0 12 -4 12 -9 0 -4 12 -7 28 -5 15 2
46 4 70 5 23 1 42 5 42 8 0 13 47 59 67 65 25 8 34 46 15 61 -11 9 -10 15 6
36 11 14 21 31 22 39 4 24 0 40 -7 39 -5 -1 -18 -4 -30 -6z"/>
</g>
</svg>
